# xmcd
#
# Track frame offsets:
#	150
#	15894
#	34412
#	49259
#	63579
#	80145
#	93198
#	107238
#	120665
#	138029
#	153488
#	166763
#
# Disc length: 2484 seconds
#
# Revision: 0
# Processed by: cddbd v1.4PL0 Copyright (c) Steve Scherf et al.
# Submitted via: dBpowerAMP V4.0
#
DISCID=9409b20c
DTITLE=JAVIER SOLIS - Exitos con TRIO
DYEAR=1900
DGENRE=Ballad
TTITLE0=Sombras   .1
TTITLE1=Cuando Vuelvo A Tu Lado  .2
TTITLE2=Payaso     .3
TTITLE3=Solamente Una Vez  .4
TTITLE4=en Mi Viejo San juan .5
TTITLE5=Tres Palabras  .6
TTITLE6=La Mentira ( Se Te Olvida ) .7
TTITLE7=Obsesion  .8
TTITLE8=Si Dios Me Quita La vida  .9
TTITLE9=Me Recordaras  .10
TTITLE10=Sigamos Pecando  .11
TTITLE11=Besame mucho  . 12
EXTD=
EXTT0=
EXTT1=
EXTT2=
EXTT3=
EXTT4=
EXTT5=
EXTT6=
EXTT7=
EXTT8=
EXTT9=
EXTT10=
EXTT11=
PLAYORDER=
